# AST/ASF file generated using VICON BodyLanguage
# -----------------------------------------------
:version 1.10
:name VICON
:units
  mass 1.0
  length 0.45
  angle deg
:documentation
   .ast/.asf automatically generated from VICON data using
   VICON BodyBuilder and BodyLanguage model FoxedUp or BRILLIANT.MOD
:root
   order TX TY TZ RX RY RZ
   axis XYZ
   position 0 0 0  
   orientation 0 0 0 
:bonedata
  begin
     id 1 
     name lhipjoint
     direction 0.671379 -0.66392 0.329334 
     length 2.38647 
     axis 0 0 0  XYZ
  end
  begin
     id 2 
     name lfemur
     direction 0.34202 -0.939693 0  
     length 6.48179  
     axis 0 0 20  XYZ
    dof rx ry rz
    limits (-160.0 20.0)
           (-70.0 70.0)
           (-60.0 70.0)
  end
  begin
     id 3 
     name ltibia
     direction 0.34202 -0.939693 0   
     length 6.86524   
     axis 0 0 20   XYZ
    dof rx
    limits (-10.0 170.0)
  end
  begin
     id 4 
     name lfoot
     direction 0.204886 -0.562919 0.800715   
     length 1.73031   
     axis -90 7.62852e-016 20   XYZ
    dof rx rz
    limits (-45.0 90.0)
           (-70.0 20.0)
  end
  begin
     id 5 
     name ltoes
     direction 1.53548e-011 -4.21841e-011 1   
     length 0.828161   
     axis -90 7.62852e-016 20   XYZ
    dof rx
    limits (-90.0 20.0)
  end
  begin
     id 6 
     name rhipjoint
     direction -0.662732 -0.670855 0.332775   
     length 2.3618  
     axis 0 0 0  XYZ 
  end
  begin
     id 7 
     name rfemur
     direction -0.34202 -0.939693 0   
     length 6.3025   
     axis 0 0 -20   XYZ
    dof rx ry rz
    limits (-160.0 20.0)
           (-70.0 70.0)
           (-70.0 60.0)
  end
  begin
     id 8 
     name rtibia
     direction -0.34202 -0.939693 0   
     length 6.8732   
     axis 0 0 -20   XYZ
    dof rx
    limits (-10.0 170.0)
 end
 begin
     id 9 
     name rfoot
     direction -0.173856 -0.477665 0.861168   
     length 1.54784  
     axis -90 -7.62852e-016 -20   XYZ
    dof rx rz
    limits (-45.0 90.0)
           (-20.0 70.0)
  end
  begin
     id 10 
     name rtoes
     direction -1.53562e-011 -4.21802e-011 1   
     length 0.759618   
     axis -90 -7.62852e-016 -20   XYZ
    dof rx
    limits (-90.0 20.0)
  end
  begin
     id 11 
     name lowerback
     direction -0.0278357 0.999497 -0.0151789   
     length 1.97203   
     axis 0 0 0   XYZ
    dof rx ry rz
    limits (-20.0 45.0)
           (-30.0 30.0)
           (-30.0 30.0)
  end
  begin
     id 12 
     name upperback
     direction -0.00360622 0.997542 0.0699804   
     length 1.94709   
     axis 0 0 0   XYZ
    dof rx ry rz
    limits (-20.0 45.0)
           (-30.0 30.0)
           (-30.0 30.0)
  end
  begin
     id 13 
     name thorax
     direction 0.00907706 0.997048 0.0762461   
     length 1.95722   
     axis 0 0 0   XYZ
    dof rx ry rz
    limits (-20.0 45.0)
           (-30.0 30.0)
           (-30.0 30.0)
  end
  begin
     id 14 
     name lowerneck
     direction -0.0481835 0.99872 -0.0153927   
     length 1.63078   
     axis 0 0 0   XYZ
    dof rx ry rz
    limits (-20.0 45.0)
           (-30.0 30.0)
           (-30.0 30.0)
  end
  begin
     id 15 
     name upperneck
     direction 0.0859716 0.979226 -0.183644   
     length 1.62591   
     axis 0 0 0   XYZ
    dof rx ry rz
    limits (-20.0 45.0)
           (-30.0 30.0)
           (-30.0 30.0)
  end
  begin
     id 16
     name head
     direction 0.0324821 0.997629 -0.0606773  
     length 1.64811  
     axis 0 0 0   XYZ
    dof rx ry rz
    limits (-20.0 45.0)
           (-30.0 30.0)
           (-30.0 30.0)
  end
  begin
     id 17 
     name lclavicle
     direction 0.939609 0.311019 0.142835  
     length 3.70647  
     axis 0 0 0   XYZ
    dof ry rz
    limits (-20.0 10.0)
           (0.0 20.0)
  end
  begin
     id 18 
     name lhumerus
     direction 1 -4.48963e-011 -1.59838e-027   
     length 4.59207   
     axis 180 -30 -90   XYZ
    dof rx ry rz
    limits (-60.0 90.0)
           (-90.0 90.0)
           (-90.0 90.0)
  end
  begin
     id 19
     name lradius
     direction 1 -4.48957e-011 -1.3483e-026   
     length 2.98109   
     axis 180 -30 -90   XYZ
    dof rx
    limits (-10.0 170.0)
  end
  begin
     id 20
     name lwrist
     direction 1 -4.48954e-011 -3.11579e-026   
     length 1.49055   
     axis 2.00652e-014 90 90   XYZ
    dof ry
    limits (-180.0 0.0)
 end
  begin
     id 21 
     name lhand
     direction 1 -4.4911e-011 -6.23158e-026   
     length 0.480203   
     axis 3.97628e-014 90 90   XYZ
    dof rx rz
    limits (-90.0 90.0)
           (-45.0 45.0)
  end
  begin
     id 22 
     name lfingers
     direction 1 -4.48893e-011 -1.24632e-025   
     length 0.387152   
     axis 7.95256e-014 90 90   XYZ
    dof rx
    limits (0.0 90.0)
  end
  begin
     id 23
     name lthumb
     direction 0.707107 -6.35013e-011 0.707107   
     length 0.555875   
     axis -90 45 2.85299e-015   XYZ
    dof rx rz
    limits (-45.0 45.0)
           (-45.0 45.0)
  end
  begin
     id 24 
     name rclavicle
     direction -0.950396 0.30392 0.0661859   
     length 3.70894  
     axis 0 0 0   XYZ 
    dof ry rz
    limits (-10.0 20.0)
           (-20.0 0.0)
  end
  begin
     id 25 
     name rhumerus
     direction -1 -4.48957e-011 -2.96677e-027  
     length 4.76508   
     axis 180 30 90   XYZ
    dof rx ry rz
    limits (-90.0 60.0)
           (-90.0 90.0)
           (-90.0 90.0)
  end
  begin
     id 26 
     name rradius
     direction -1 -4.48974e-011 -1.44501e-026   
     length 2.78902   
     axis 180 30 90   XYZ
    dof rx
    limits (-10.0 170.0)
  end
  begin
     id 27 
     name rwrist
     direction -1 -4.48978e-011 -3.11579e-026   
     length 1.39451   
     axis 2.00652e-014 -90 -90   XYZ
    dof ry
    limits (-180.0 0.0)
  end
  begin
     id 28
     name rhand
     direction -1 -4.48956e-011 -6.23158e-026   
     length 0.721303   
     axis 3.97628e-014 -90 -90   XYZ
    dof rx rz
    limits (-90.0 90.0)
           (-45.0 45.0)
  end
  begin
     id 29
     name rfingers
     direction -1 -4.4899e-011 -1.24632e-025   
     length 0.581533   
     axis 7.95256e-014 -90 -90   XYZ
    dof rx
    limits (0.0 90.0)
  end
  begin
     id 30
     name rthumb
     direction -0.707107 -6.34911e-011 0.707107   
     length 0.834968   
     axis -90 -45 -2.85299e-015   XYZ
    dof rx rz
    limits (-45.0 45.0)
           (-45.0 45.0)
  end
:hierarchy
  begin
    root lhipjoint rhipjoint lowerback
    lhipjoint lfemur
    lfemur ltibia
    ltibia lfoot
    lfoot ltoes
    rhipjoint rfemur
    rfemur rtibia
    rtibia rfoot
    rfoot rtoes
    lowerback upperback
    upperback thorax
    thorax lowerneck lclavicle rclavicle
    lowerneck upperneck
    upperneck head
    lclavicle lhumerus
    lhumerus lradius
    lradius lwrist
    lwrist lhand lthumb
    lhand lfingers
    rclavicle rhumerus
    rhumerus rradius
    rradius rwrist
    rwrist rhand rthumb
    rhand rfingers
  end

#!OML:ASF I:\salsa\salsa 7_09\Patient 1\Session 1\dancerfemale.ASF
:FULLY-SPECIFIED
:DEGREES
71
root 21.5033 16.0091 2.31377 -152.543 -86.2909 159.922
lowerback -1.33538 1.40059 -0.805885
upperback -6.33065 1.62978 -1.35266
thorax -5.7893 0.741683 -1.00632
lowerneck -4.53551 -3.59658 -13.4197
upperneck 11.9296 -5.99263 16.5495
head 5.17523 -2.75099 7.14553
rclavicle -1.37907e-014 5.36719e-015
rhumerus -42.4041 -23.2942 -80.4691
rradius 28.165
rwrist 5.44082
rhand 8.42068 39.0306
rfingers 7.12502
rthumb 33.6269 12.1648
lclavicle -1.37907e-014 5.36719e-015
lhumerus -47.8903 22.6988 81.7914
lradius 43.0768
lwrist -12.919
lhand -7.95869 31.532
lfingers 7.12502
lthumb 17.9486 60.7238
rfemur -15.9391 -1.20929 19.152
rtibia 27.499
rfoot -23.8063 -12.5036
rtoes -23.5107
lfemur -17.6047 -1.40637 -22.4479
ltibia 33.3129
lfoot -26.9351 -2.07804
ltoes 20.2573
72
root 21.5033 16.014 2.30816 -152.187 -86.3912 159.517
lowerback -1.2902 1.12558 -0.851338
upperback -6.30553 1.26779 -1.22188
thorax -5.79599 0.568484 -0.832368
lowerneck -4.62195 -3.39652 -13.4998
upperneck 12.0305 -5.68727 16.4221
head 5.17028 -2.60577 7.14019
rclavicle -1.26725e-015 5.76476e-015
rhumerus -42.1981 -23.2064 -80.488
rradius 28.0319
rwrist 5.72485
rhand 8.48041 39.01
rfingers 7.12502
rthumb 33.6837 12.1566
lclavicle -1.26725e-015 5.76476e-015
lhumerus -48.1819 23.1221 81.4628
lradius 43.1107
lwrist -12.843
lhand -7.15703 30.5027
lfingers 7.12502
lthumb 18.7198 59.6219
rfemur -15.8525 -1.11258 19.1817
rtibia 27.4681
rfoot -23.8288 -12.6167
rtoes -23.098
lfemur -17.5396 -1.45499 -22.3956
ltibia 33.2882
lfoot -26.8683 -2.15369
ltoes 20.5135
73
root 21.5007 16.0167 2.30205 -151.141 -86.5524 158.286
lowerback -1.13847 0.967952 -0.984396
upperback -6.21941 1.06075 -1.16128
thorax -5.79676 0.4764 -0.688983
lowerneck -4.69499 -3.3381 -13.454
upperneck 12.1315 -5.60568 16.3576
head 5.19746 -2.56336 7.11738
rclavicle 3.27995e-015 -9.74045e-015
rhumerus -42.0808 -23.5006 -80.411
rradius 27.99
rwrist 5.97775
rhand 8.63046 39.0231
rfingers 7.12502
rthumb 33.8262 12.2009
lclavicle 3.27995e-015 -9.74045e-015
lhumerus -48.2709 23.3047 81.2682
lradius 43.0448
lwrist -12.9513
lhand -7.23397 30.2961
lfingers 7.12502
lthumb 18.6458 59.4225
rfemur -15.5937 -1.09735 19.2106
rtibia 27.4179
rfoot -23.8321 -12.7959
rtoes -23.0483
lfemur -17.3248 -1.51601 -22.36
ltibia 33.2832
lfoot -26.8476 -2.28156
ltoes 20.1859
74
root 21.5007 16.0075 2.29923 -150.786 -86.5912 157.83
lowerback -1.03292 0.94148 -1.17638
upperback -6.17483 1.02581 -1.09912
thorax -5.81514 0.47205 -0.51717
lowerneck -4.57404 -3.34937 -13.3524
upperneck 12.1078 -5.62636 16.2417
head 5.16654 -2.58031 7.05923
rclavicle -3.85145e-015 1.21259e-014
rhumerus -42.0132 -23.7631 -80.3074
rradius 27.9936
rwrist 6.014
rhand 8.67335 38.9543
rfingers 7.12502
rthumb 33.867 12.1411
lclavicle -3.85145e-015 1.21259e-014
lhumerus -48.2933 23.3197 81.2836
lradius 42.8918
lwrist -12.8648
lhand -8.78002 30.9454
lfingers 7.12502
lthumb 17.1582 60.2078
rfemur -15.4462 -1.24844 19.2464
rtibia 27.4243
rfoot -23.8159 -12.7856
rtoes -23.5727
lfemur -17.2013 -1.54448 -22.3531
ltibia 33.2451
lfoot -26.8159 -2.29235
ltoes 19.9883
75
root 21.5025 16.0029 2.29865 -151.335 -86.5247 158.367
lowerback -0.991737 0.924604 -1.33152
upperback -6.15923 1.00433 -1.01443
thorax -5.8269 0.472387 -0.342295
lowerneck -4.50126 -3.35745 -13.2609
upperneck 12.1481 -5.63563 16.0712
head 5.16058 -2.59206 6.98599
rclavicle 4.96962e-017 -5.76476e-015
rhumerus -41.9034 -23.8622 -80.2598
rradius 27.9761
rwrist 6.04551
rhand 8.72322 38.9185
rfingers 7.12502
rthumb 33.9144 12.1157
lclavicle 4.96962e-017 -5.76476e-015
lhumerus -47.4889 23.8679 81.1509
lradius 41.3492
lwrist -12.6746
lhand -12.3786 32.1354
lfingers 7.12502
lthumb 13.6921 61.665
rfemur -15.4474 -1.32084 19.2576
rtibia 27.4374
rfoot -23.7777 -12.6668
rtoes -24.0262
lfemur -17.1768 -1.53657 -22.3511
ltibia 33.2161
lfoot -26.801 -2.21222
ltoes 20.2078
76
root 21.5024 16.0143 2.29882 -151.283 -86.4246 158.285
lowerback -0.973089 0.887092 -1.45158
upperback -6.10943 0.955504 -0.978704
thorax -5.78755 0.456002 -0.235881
lowerneck -4.53854 -3.34083 -13.1998
upperneck 12.2007 -5.60706 15.978
head 5.17455 -2.57793 6.94625
rclavicle 4.34841e-015 1.0138e-014
rhumerus -41.731 -23.9738 -80.2863
rradius 27.9261
rwrist 6.18019
rhand 8.81528 38.9287
rfingers 7.12502
rthumb 34.0018 12.1454
lclavicle 4.34841e-015 1.0138e-014
lhumerus -45.3603 26.6165 79.3855
lradius 36.8024
lwrist -16.3594
lhand -11.1515 30.6706
lfingers 7.12502
lthumb 14.8745 60.1166
rfemur -15.4808 -1.23507 19.1697
rtibia 27.4209
rfoot -23.7372 -12.5796
rtoes -23.3999
lfemur -17.1267 -1.52466 -22.406
ltibia 33.2244
lfoot -26.8438 -2.1421
ltoes 20.5755
77
root 21.5018 16.0148 2.30024 -151.25 -86.3396 158.228
lowerback -0.866074 0.872365 -1.5459
upperback -6.13982 0.930908 -0.959373
thorax -5.88324 0.449312 -0.16414
lowerneck -4.5748 -3.30555 -13.1688
upperneck 12.3374 -5.56614 15.9159
head 5.21323 -2.55788 6.92494
rclavicle 1.0138e-014 1.98785e-015
rhumerus -41.7178 -24.0006 -80.3116
rradius 27.9059
rwrist 6.2389
rhand 8.74335 38.9882
rfingers 7.12502
rthumb 33.9335 12.1897
lclavicle 1.0138e-014 1.98785e-015
lhumerus -45.5314 26.5828 79.2603
lradius 36.8881
lwrist -16.2091
lhand -9.76891 30.3103
lfingers 7.12502
lthumb 16.2062 59.6529
rfemur -15.4955 -1.25417 19.118
rtibia 27.4641
rfoot -23.7576 -12.5154
rtoes -23.2323
lfemur -17.0699 -1.5207 -22.4605
ltibia 33.1931
lfoot -26.8769 -2.07484
ltoes 20.3806
